<?xml version="1.0" encoding="UTF-8"?>
<svg id="Livello_2" data-name="Livello 2" xmlns="http://www.w3.org/2000/svg" xmlns:xlink="http://www.w3.org/1999/xlink" viewBox="0 0 40.39 11.39">
  <defs>
    <style>
      .cls-1 {
        fill: none;
      }

      .cls-2 {
        clip-path: url(#clippath);
      }

      .cls-3 {
        fill: #1386c9;
      }

      .cls-4 {
        clip-path: url(#clippath-1);
      }

      .cls-5 {
        clip-path: url(#clippath-4);
      }

      .cls-6 {
        clip-path: url(#clippath-3);
      }

      .cls-7 {
        clip-path: url(#clippath-2);
      }

      .cls-8 {
        clip-path: url(#clippath-6);
      }

      .cls-9 {
        clip-path: url(#clippath-5);
      }
    </style>
    <clipPath id="clippath">
      <path class="cls-1" d="m2.66,5.14h1.11c.41-.02.82.01,1.22.1.17.05.32.16.43.31.1.15.15.34.15.52.01.21-.06.42-.19.58-.13.15-.31.24-.5.27-.31.04-.63.05-.95.04h-1.27v-1.82Zm0-2.71h.79c.65,0,1.04,0,1.18.02.2.01.38.1.52.24.12.14.18.33.18.51,0,.2-.06.39-.2.53-.15.14-.35.23-.56.24-.13.02-.46.02-1,.02h-.9v-1.58Zm-1.38-1.14v6.83h2.32c.88,0,1.43-.02,1.66-.05.33-.03.65-.14.93-.32.25-.18.46-.42.59-.71.14-.28.22-.59.22-.91,0-.37-.11-.73-.33-1.03-.24-.31-.58-.52-.96-.62.29-.13.53-.34.7-.6.17-.26.26-.57.26-.88,0-.28-.07-.56-.21-.8-.26-.46-.71-.77-1.23-.85-.4-.05-.8-.08-1.21-.07H1.28Z"/>
    </clipPath>
    <clipPath id="clippath-1">
      <path class="cls-1" d="m9.41,4.37c.35-.39.94-.42,1.33-.07.02.02.04.04.06.06.2.24.31.55.29.86h-1.96c-.02-.31.08-.61.27-.85m-1-.62c-.45.54-.68,1.22-.64,1.92-.02.61.15,1.2.49,1.7.46.58,1.17.9,1.91.84.48.02.95-.11,1.36-.38.37-.27.65-.65.79-1.09l-1.3-.22c-.05.21-.16.4-.32.54-.15.11-.33.17-.52.17-.29,0-.56-.11-.75-.32-.22-.25-.33-.58-.32-.91h3.28c.08-.79-.14-1.59-.61-2.23-.44-.49-1.08-.76-1.74-.73-.62-.02-1.21.24-1.62.7"/>
    </clipPath>
    <clipPath id="clippath-2">
      <path class="cls-1" d="m13.68,3.49c-.32.26-.51.66-.51,1.08-.01.45.21.87.59,1.11.63.31,1.31.53,2.01.64.16.02.31.08.44.17.06.07.1.16.09.25,0,.14-.06.27-.17.35-.23.14-.5.2-.76.19-.25.02-.51-.05-.72-.2-.18-.15-.3-.35-.34-.58l-1.31.2c.11.45.38.85.77,1.11.48.3,1.04.44,1.6.41.6.04,1.2-.13,1.68-.49.36-.28.57-.71.57-1.17.02-.37-.13-.73-.41-.97-.44-.3-.94-.5-1.46-.58-.42-.07-.83-.19-1.22-.37-.08-.05-.13-.14-.13-.24,0-.11.06-.21.15-.27.23-.11.48-.16.74-.14.22-.01.44.04.63.15.15.11.26.26.3.44l1.23-.23c-.1-.4-.34-.74-.68-.98-.46-.25-.98-.37-1.51-.33-.56-.04-1.12.11-1.57.44"/>
    </clipPath>
    <clipPath id="clippath-3">
      <path class="cls-1" d="m18.82,2.18v.98h-.6v1.04h.6v2.16c0,.31,0,.62.04.92.02.18.09.36.19.51.11.14.25.25.42.31.2.08.42.12.64.12.35,0,.71-.06,1.03-.19l-.11-1.01c-.17.07-.35.11-.53.13-.08,0-.16-.02-.22-.06-.06-.04-.1-.1-.12-.16-.03-.23-.03-.47-.03-.71v-2h.9v-1.04h-.9v-1.75l-1.31.76Z"/>
    </clipPath>
    <clipPath id="clippath-4">
      <polygon class="cls-1" points="27.37 3.17 26.42 6.41 25.6 3.17 24.34 3.17 23.49 6.41 22.56 3.17 21.29 3.17 22.85 8.11 24.12 8.11 24.96 4.93 25.81 8.11 27.07 8.11 28.66 3.17 27.37 3.17"/>
    </clipPath>
    <clipPath id="clippath-5">
      <path class="cls-1" d="m30.52,7.1c-.13-.12-.21-.29-.21-.47,0-.19.1-.36.26-.46.22-.11.46-.19.71-.23.27-.05.53-.12.8-.2v.26c0,.22,0,.43-.05.64-.05.17-.16.33-.31.43-.19.15-.43.23-.68.23-.19,0-.38-.07-.52-.2m-.69-3.7c-.35.26-.59.64-.69,1.06l1.19.21c.05-.19.16-.36.32-.48.16-.1.35-.15.55-.14.25-.03.49.03.71.16.14.14.21.34.19.54v.13c-.41.15-.84.25-1.27.32-.36.06-.71.16-1.04.3-.23.11-.43.28-.56.5-.13.23-.2.48-.2.75-.01.4.15.78.44,1.05.33.29.76.44,1.2.41.28,0,.56-.05.81-.16.27-.12.51-.28.72-.49,0,.02.02.08.05.15.04.13.08.26.13.38h1.3c-.11-.21-.19-.43-.24-.66-.05-.32-.07-.64-.06-.96v-1.53c.05-.4-.01-.8-.16-1.17-.14-.23-.35-.42-.6-.53-.41-.16-.86-.23-1.3-.21-.51-.03-1.01.09-1.45.35"/>
    </clipPath>
    <clipPath id="clippath-6">
      <path class="cls-1" d="m37.76,3.17l-1.15,3.51-1.18-3.51h-1.39l1.88,4.96c-.06.25-.18.48-.34.68-.17.19-.42.29-.68.27-.19,0-.37-.02-.56-.06l.12,1.03c.24.05.49.08.74.08.23,0,.45-.02.67-.08.18-.04.35-.12.5-.22.14-.1.26-.23.36-.37.13-.21.24-.43.33-.66l.31-.86,1.75-4.76h-1.35Z"/>
    </clipPath>
  </defs>
  <g id="Livello_1-2" data-name="Livello 1">
    <g id="Raggruppa_13974" data-name="Raggruppa 13974">
      <g id="Raggruppa_13973" data-name="Raggruppa 13973">
        <path id="Sottrazione_1" data-name="Sottrazione 1" class="cls-3" d="m35.2,11.39c-.34,0-.68-.04-1.01-.11-.54-.11-.94-.56-1.01-1.1l-.09-.8h-.75c-.17,0-.35-.04-.51-.1-.38.14-.79.22-1.2.22-.77.02-1.51-.25-2.08-.76-.09-.09-.18-.18-.26-.28l-.02.05c-.17.53-.66.89-1.22.88h-1.26c-.31,0-.61-.12-.85-.32-.23.2-.53.32-.84.32h-1.27c-.34,0-.67-.13-.91-.37-.1.08-.2.14-.31.19-.48.21-1,.31-1.53.3-.39,0-.78-.07-1.14-.22-.37-.15-.7-.39-.94-.71-.04.04-.09.09-.14.13-.72.56-1.61.84-2.52.8-.83.03-1.64-.19-2.34-.64-.13-.09-.25-.19-.37-.3-.13.12-.27.24-.41.34-.62.41-1.34.62-2.08.61-1.04.05-2.05-.37-2.76-1.14-.14.16-.31.3-.48.42-.46.31-.98.5-1.53.55-.29.03-.86.04-1.8.05H1.28C.57,9.39,0,8.82,0,8.11c0,0,0,0,0,0V1.28C0,.58.57,0,1.28,0h2.72c.48-.01.96.02,1.43.09.43.07.85.24,1.21.49.37.25.68.59.91.98.17.29.28.6.34.93.61-.48,1.37-.73,2.14-.71.95-.03,1.87.33,2.55,1,.08-.09.17-.17.26-.25.69-.53,1.54-.8,2.41-.75.72-.03,1.44.12,2.09.46.06-.06.13-.11.2-.15.03-.41.27-.79.62-1l1.32-.76c.2-.12.42-.18.65-.18.22,0,.43.06.62.16.4.23.66.66.66,1.12v.46h1.15c.33,0,.65.13.89.36.24-.23.56-.36.89-.36h1.26c.33,0,.65.13.89.35.24-.23.55-.36.88-.35h1.29c.28,0,.55.09.77.26.58-.27,1.21-.39,1.85-.37.64-.03,1.28.09,1.87.34l.1.05c.23-.18.51-.27.79-.27h1.38c.51,0,.97.29,1.17.76.21-.46.66-.75,1.17-.76h1.35c.71,0,1.28.58,1.28,1.28,0,.15-.03.3-.08.44l-1.75,4.76-.3.85c-.13.33-.29.65-.48.95-.18.27-.41.51-.68.7-.27.19-.58.33-.91.41-.32.08-.66.12-.99.12Zm-3.33-2.64h0c.14.1.31.16.48.16h1.21c-.01.06-.02.13,0,.19l.11,1.03c.04.34.3.62.63.69.3.06.6.1.91.1.29,0,.59-.03.87-.1.27-.06.53-.18.75-.34.22-.16.41-.35.56-.58.17-.26.31-.55.42-.84l.3-.86,1.75-4.76c.15-.42-.07-.88-.48-1.03-.09-.03-.18-.05-.27-.05h-1.35c-.35,0-.65.22-.76.55l-.4,1.22-.42-1.23c-.11-.33-.42-.55-.76-.54h-1.39c-.26,0-.51.13-.67.34-.01.03-.02.05-.04.07-.12-.1-.25-.18-.39-.24-.52-.22-1.09-.32-1.66-.29-.67-.04-1.34.13-1.91.49,0,0,0,0,0,0h0s-.01-.02-.02-.04c0,0-.01-.01-.02-.02-.15-.21-.39-.33-.65-.33h-1.29c-.36,0-.67.24-.77.58l-.12.43-.1-.4c-.09-.36-.41-.6-.78-.6h-1.26c-.36,0-.68.24-.78.59l-.1.42-.13-.43c-.1-.34-.41-.57-.77-.58h-1.27s-.08.01-.12.02h0s-.09-.02-.14-.02h-.09v-.95c0-.29-.16-.55-.41-.7-.12-.07-.26-.1-.39-.1-.14,0-.28.04-.41.11l-1.32.76c-.24.15-.39.41-.39.69v.21c-.26.07-.47.26-.56.52-.08-.07-.16-.14-.25-.19-.59-.35-1.27-.51-1.95-.46-.75-.05-1.5.18-2.1.63-.22.19-.41.42-.54.69-.07-.11-.15-.22-.24-.32-.59-.67-1.45-1.04-2.34-1-.84-.02-1.65.33-2.22.95-.15.16-.27.34-.38.53l-.09-.03c.07-.23.11-.46.1-.7,0-.42-.1-.84-.31-1.21-.19-.33-.45-.61-.77-.83-.31-.21-.66-.35-1.03-.41-.45-.06-.9-.09-1.35-.08H1.28c-.44,0-.8.36-.8.8v6.83c0,.44.36.8.8.8h2.32c.91,0,1.49-.02,1.75-.05.46-.04.91-.2,1.3-.46.32-.23.58-.52.77-.86.06.11.12.21.19.31.6.79,1.56,1.23,2.56,1.17.64.02,1.28-.16,1.81-.52.26-.18.5-.41.68-.67.18.25.4.47.65.64.61.39,1.33.58,2.06.55.79.04,1.57-.2,2.2-.68.22-.19.41-.42.55-.67.06.21.15.41.26.59.19.26.46.46.76.58.3.12.63.19.95.19.46,0,.92-.08,1.35-.26.25-.1.43-.34.47-.61h.11l.06.2c.1.34.42.56.77.56h1.27c.36,0,.68-.25.78-.6l.07-.26.06.27c.1.35.41.59.78.59h1.26c.35,0,.66-.22.76-.55l.4-1.23c.07.49.3.93.67,1.27.48.43,1.1.66,1.75.63.39,0,.77-.08,1.13-.22l.1-.05h0Z"/>
        <g id="Raggruppa_13930" data-name="Raggruppa 13930">
          <g class="cls-2">
            <g id="Raggruppa_13931" data-name="Raggruppa 13931">
              <rect id="Rettangolo_4363" data-name="Rettangolo 4363" class="cls-3" x="1.28" y="1.29" width="5.72" height="6.82"/>
            </g>
          </g>
        </g>
        <g id="Raggruppa_13931-2" data-name="Raggruppa 13931-2">
          <g class="cls-4">
            <g id="Raggruppa_13933" data-name="Raggruppa 13933">
              <rect id="Rettangolo_4364" data-name="Rettangolo 4364" class="cls-3" x="7.77" y="3.05" width="4.64" height="5.17"/>
            </g>
          </g>
        </g>
        <g id="Raggruppa_13932" data-name="Raggruppa 13932">
          <g class="cls-7">
            <g id="Raggruppa_13935" data-name="Raggruppa 13935">
              <rect id="Rettangolo_4365" data-name="Rettangolo 4365" class="cls-3" x="12.99" y="3.05" width="4.62" height="5.17"/>
            </g>
          </g>
        </g>
        <g id="Raggruppa_13933-2" data-name="Raggruppa 13933-2">
          <g class="cls-6">
            <g id="Raggruppa_13937" data-name="Raggruppa 13937">
              <rect id="Rettangolo_4366" data-name="Rettangolo 4366" class="cls-3" x="18.22" y="1.42" width="2.91" height="6.8"/>
            </g>
          </g>
        </g>
        <g id="Raggruppa_13934" data-name="Raggruppa 13934">
          <g class="cls-5">
            <g id="Raggruppa_13939" data-name="Raggruppa 13939">
              <rect id="Rettangolo_4367" data-name="Rettangolo 4367" class="cls-3" x="21.29" y="3.17" width="7.37" height="4.94"/>
            </g>
          </g>
        </g>
        <g id="Raggruppa_13935-2" data-name="Raggruppa 13935-2">
          <g class="cls-9">
            <g id="Raggruppa_13941" data-name="Raggruppa 13941">
              <rect id="Rettangolo_4368" data-name="Rettangolo 4368" class="cls-3" x="29" y="3.05" width="4.64" height="5.17"/>
            </g>
          </g>
        </g>
        <g id="Raggruppa_13936" data-name="Raggruppa 13936">
          <g class="cls-8">
            <g id="Raggruppa_13943" data-name="Raggruppa 13943">
              <rect id="Rettangolo_4369" data-name="Rettangolo 4369" class="cls-3" x="34.03" y="3.17" width="5.08" height="6.95"/>
            </g>
          </g>
        </g>
        <path id="Tracciato_5039" data-name="Tracciato 5039" class="cls-1" d="m0,0h40.39v11.39H0V0Z"/>
      </g>
      <path id="Tracciato_5040" data-name="Tracciato 5040" class="cls-3" d="m39.52,8.93v-.57h.24s.09,0,.13.02c.03.01.05.03.06.06.02.03.03.06.02.09,0,.04-.01.08-.04.11-.03.03-.07.05-.11.05.02.01.05.03.06.05.02.03.05.06.06.09l.07.11h-.14l-.08-.12s-.04-.06-.06-.08c0-.01-.02-.02-.03-.02-.02,0-.04,0-.06,0h-.02v.24h-.12Zm.12-.33h.08s.07,0,.11,0c.01,0,.02-.01.03-.02,0-.01.01-.03.01-.04,0-.04-.03-.07-.06-.07h-.17v.14Z"/>
      <path id="Tracciato_5041" data-name="Tracciato 5041" class="cls-3" d="m39.78,8.03c-.34,0-.62.28-.62.62s.28.62.62.62c.34,0,.62-.28.62-.62s-.28-.62-.62-.62m0,1.12c-.27,0-.5-.22-.5-.5,0-.27.22-.5.5-.5.27,0,.49.22.5.5,0,.27-.22.5-.5.5,0,0,0,0,0,0"/>
    </g>
  </g>
</svg>