<svg xmlns="http://www.w3.org/2000/svg" viewBox="0 0 271.51 100"><defs><style>.cls-1{fill:#27a8e1;}.cls-2{fill:#8bc34a;}.cls-3{fill:#fec107;}</style></defs><title>logo digitalbay</title><g id="Livello_2" data-name="Livello 2"><g id="Livello_1-2" data-name="Livello 1"><path class="cls-1" d="M19.48,40a72.31,72.31,0,0,1,12-.88c7.58,0,12.52,1.41,16.28,4.23,4.11,3.06,6.7,7.88,6.7,14.93,0,7.58-2.76,12.81-6.52,16-4.17,3.47-10.58,5.11-18.34,5.11a76.82,76.82,0,0,1-10.17-.59Zm8.93,32.27a16.8,16.8,0,0,0,3.12.18C39.69,72.48,45,68,45,58.54,45,50.32,40.22,46,32.46,46a19.06,19.06,0,0,0-4.06.35Z"/><path class="cls-1" d="M62.15,46.73a4.47,4.47,0,1,1,.12-8.93,4.47,4.47,0,1,1-.06,8.93ZM57.74,79V50.26h8.93V79Z"/><path class="cls-1" d="M98.47,74.83c0,5.53-1.12,10-4.41,12.93-3.11,2.7-7.41,3.53-11.64,3.53a23,23,0,0,1-10.34-2.18l1.76-6.82a17.47,17.47,0,0,0,8.35,2.18c4.23,0,7.46-2.23,7.46-7.58V75.06h-.12a9.3,9.3,0,0,1-7.76,3.7c-7.11,0-12.17-5.76-12.17-14,0-9.29,5.94-15.16,13-15.16,3.94,0,6.41,1.7,7.88,4.11h.12l.29-3.47H98.7c-.12,1.88-.23,4.29-.23,8.58ZM89.53,62a7.84,7.84,0,0,0-.18-1.65,4.9,4.9,0,0,0-4.82-3.94c-3.29,0-5.88,2.94-5.88,8.17,0,4.29,2.12,7.64,5.82,7.64a4.89,4.89,0,0,0,4.76-3.59,8.24,8.24,0,0,0,.29-2.41Z"/><path class="cls-1" d="M107.46,46.73a4.8,4.8,0,1,1,.06,0ZM103,79V50.26H112V79Z"/><path class="cls-1" d="M126.56,42.44v7.82H133v6.58h-6.41v10.4c0,3.47.88,5.05,3.53,5.05a11,11,0,0,0,2.64-.24l.06,6.76a18.79,18.79,0,0,1-5.76.76,9.55,9.55,0,0,1-6.76-2.47c-1.65-1.71-2.47-4.47-2.47-8.52V56.84H114V50.26h3.82V44.85Z"/><path class="cls-1" d="M159.47,72.06a37.24,37.24,0,0,0,.47,6.94h-8.05l-.53-2.88h-.18A10.36,10.36,0,0,1,143,79.65c-5.82,0-9.29-4.23-9.29-8.82,0-7.46,6.7-11,16.87-11v-.35c0-1.53-.82-3.7-5.23-3.7a16.81,16.81,0,0,0-7.93,2.12l-1.65-5.7a23.6,23.6,0,0,1,11.17-2.59c9.58,0,12.58,5.64,12.58,12.4Zm-8.64-6.64c-4.7,0-8.35,1.12-8.35,4.52A3.21,3.21,0,0,0,146,73.36a4.94,4.94,0,0,0,4.64-3.29,6.39,6.39,0,0,0,.18-1.53Z"/><path class="cls-1" d="M164,37.21h8.93V79H164Z"/><path class="cls-2" d="M178.59,40a69.83,69.83,0,0,1,11.58-.88c5.47,0,8.82.53,11.7,2.23a8.6,8.6,0,0,1,4.7,7.82c0,3.47-2.06,6.7-6.46,8.4v.12c4.53,1.17,7.88,4.64,7.88,9.76a10.39,10.39,0,0,1-4.11,8.4c-2.88,2.29-7.7,3.59-15.58,3.59a69.28,69.28,0,0,1-9.7-.59Zm8.87,15.1h2.94c4.76,0,7.23-1.94,7.23-4.88s-2.29-4.58-6.35-4.58a16.74,16.74,0,0,0-3.82.29Zm0,17.57a18.91,18.91,0,0,0,3.47.18c4.06,0,7.64-1.59,7.64-5.76,0-4-3.59-5.58-8.05-5.58h-3.06Z"/><path class="cls-2" d="M219.79,68.83,217,79h-9.29l12.11-39.61h11.7L243.89,79h-9.64l-3.06-10.17Zm10.05-6.7-2.47-8.4c-.65-2.35-1.35-5.35-1.94-7.64h-.18c-.53,2.35-1.18,5.35-1.76,7.64l-2.41,8.4Z"/><path class="cls-2" d="M249.53,79V62.78L237,39.39H247.3l4,9.52c1.23,2.88,2.12,5,3.06,7.58h.12c.88-2.47,1.82-4.76,3-7.58l4-9.52h10l-13,23.1V79Z"/><path class="cls-3" d="M67,9.86V28.5H58.6V8.43H8.43V91.57H40V100H9.86A9.88,9.88,0,0,1,0,90.14V9.86A9.88,9.88,0,0,1,9.86,0H57.17A9.88,9.88,0,0,1,67,9.86Z"/></g></g></svg>