<svg xmlns="http://www.w3.org/2000/svg" viewBox="0 0 557.5 94.9"><defs><style>.cls-1{fill:#fcc00e;}.cls-2{fill:#f59e19;}.cls-3{fill:#f9b215;}.cls-4{fill:#1d1d1b;}</style></defs><g id="Livello_2" data-name="Livello 2"><g id="Livello_1-2" data-name="Livello 1"><g id="Livello_2-2" data-name="Livello 2"><g id="Livello_1-2-2" data-name="Livello 1-2"><g id="Livello_2-2-2" data-name="Livello 2-2"><g id="Livello_1-2-2-2" data-name="Livello 1-2-2"><polygon class="cls-1" points="41.1 0 41.1 11.9 10.3 29.6 10.3 29.6 0 23.7 41.1 0"/><polygon class="cls-2" points="82.1 23.7 82.1 71.1 41 94.8 41 83 71.8 65.2 71.8 29.6 82.1 23.7"/><polygon class="cls-3" points="41.1 83 41.1 94.8 0 71.1 0 23.7 10.3 29.6 10.3 65.2 41.1 83"/><polygon class="cls-3" points="41.1 59.3 41.1 71.1 20.5 59.3 20.5 35.6 20.6 35.5 30.8 41.4 30.8 53.3 41.1 59.3"/><polygon class="cls-2" points="61.6 35.6 61.6 59.3 41.1 71.1 41.1 59.3 51.3 53.3 51.3 41.4 61.5 35.5 61.6 35.6"/><polygon class="cls-1" points="61.6 11.9 61.6 35.5 61.5 35.5 51.3 41.4 51.2 41.4 41.1 35.6 30.9 41.4 30.8 41.4 20.6 35.5 41.1 23.7 51.3 29.6 51.3 5.9 61.6 11.9"/><polygon class="cls-1" points="82.1 23.7 71.8 29.6 71.8 17.8 82.1 23.7"/><path class="cls-4" d="M129.2,26.7a21.57,21.57,0,0,1,8.8,8.4,24,24,0,0,1,3.1,12.3A24.18,24.18,0,0,1,138,59.7a22.74,22.74,0,0,1-9,8.4,27.45,27.45,0,0,1-13.1,3H96.2V23.7h20.1A27.4,27.4,0,0,1,129.2,26.7Zm-5.6,33.5a12.29,12.29,0,0,0,4.9-5.2,16.45,16.45,0,0,0,1.8-7.6,15.29,15.29,0,0,0-1.9-7.6,12.77,12.77,0,0,0-5.1-5.2,14.17,14.17,0,0,0-7.3-1.9h-9.2V62h9.7A13.38,13.38,0,0,0,123.6,60.2Z"/><path class="cls-4" d="M180.9,23.7H191V71h-9.7L158.4,40.6V71H148.2V23.7h9.7l23,30.6Z"/><path class="cls-4" d="M236.4,71l-3.7-9.2H210.8L207.1,71h-11l20.5-47.3h11L247.9,71ZM214.3,53.3h14.9l-7.4-18.4Z"/><path class="cls-4" d="M255,23.8h29.6V28h-25V46.2H282v4.2H259.7V71H255Z"/><path class="cls-4" d="M326.6,71,321,58.5H294.7L289.2,71h-5l21.3-47.3h4.9L331.7,71Zm-30-16.8h22.6L307.8,28.7Z"/><path class="cls-4" d="M366.1,29a20.27,20.27,0,0,0-17.8,1.1,19.66,19.66,0,0,0-9.9,17.2,19.9,19.9,0,0,0,9.9,17.1,19.42,19.42,0,0,0,10,2.7,20.54,20.54,0,0,0,7.7-1.5,21.68,21.68,0,0,0,6.6-4.2l2.8,3a25.79,25.79,0,0,1-8,5.1,24.46,24.46,0,0,1-30.5-10.1,23.42,23.42,0,0,1-3.3-12.1,23,23,0,0,1,3.3-12,25,25,0,0,1,38.4-5.1l-2.8,3.2A17.89,17.89,0,0,0,366.1,29Z"/><path class="cls-4" d="M379,23.7h35.9V28H399.3V71h-4.7V28H379Z"/><path class="cls-4" d="M452.5,26.6a24.94,24.94,0,0,1,9,8.7,23,23,0,0,1,3.3,12,23.42,23.42,0,0,1-3.3,12.1,24.94,24.94,0,0,1-42.8,0,23.42,23.42,0,0,1-3.3-12.1,23,23,0,0,1,3.3-12A25.24,25.24,0,0,1,452.5,26.6Zm-22.4,3.6a20.15,20.15,0,0,0-7.3,7.2,19.17,19.17,0,0,0-2.7,9.9,19.42,19.42,0,0,0,2.7,10,21.25,21.25,0,0,0,7.3,7.3,19.42,19.42,0,0,0,10,2.7,19.17,19.17,0,0,0,9.9-2.7,21.25,21.25,0,0,0,7.3-7.3,19.42,19.42,0,0,0,2.7-10,19.17,19.17,0,0,0-2.7-9.9,20.15,20.15,0,0,0-7.3-7.2,18.14,18.14,0,0,0-9.9-2.6A18.68,18.68,0,0,0,430.1,30.2Z"/><path class="cls-4" d="M506.2,71,496,55.6c-1.5.1-2.5.1-3.3.1h-13V71H475V23.8h17.6c5.9,0,10.5,1.4,13.7,4.1s4.8,6.6,4.8,11.6a16.31,16.31,0,0,1-2.9,9.8,15.19,15.19,0,0,1-8.1,5.5L511.6,71ZM492.7,51.6c4.5,0,8-1,10.4-3.1s3.6-5,3.6-8.9-1.2-6.7-3.6-8.7-5.9-3-10.4-3h-13V51.5Z"/><path class="cls-4" d="M557.5,23.8,539.3,54.2V71h-4.7V54.2L516.1,23.8H521l16,25.4,15.6-25.4Z"/><path class="cls-4" d="M98.69,94.28A4.55,4.55,0,0,1,97,92.57a5,5,0,0,1,0-4.88A4.45,4.45,0,0,1,98.7,86a5.34,5.34,0,0,1,4.4-.27,4,4,0,0,1,1.48,1l-.62.63a3.67,3.67,0,0,0-2.74-1.11,4,4,0,0,0-2,.51,3.56,3.56,0,0,0-1.41,1.39,4.12,4.12,0,0,0,0,4,3.69,3.69,0,0,0,1.41,1.39,4,4,0,0,0,2,.51A3.65,3.65,0,0,0,104,92.88l.62.63a4,4,0,0,1-1.49,1,5.21,5.21,0,0,1-1.91.35A5.06,5.06,0,0,1,98.69,94.28Z"/><path class="cls-4" d="M122.24,94v.86h-6.56V85.44H122v.86h-5.38v3.33h4.8v.84h-4.8V94Z"/><path class="cls-4" d="M139.88,94.81l-2.12-3a4.57,4.57,0,0,1-.74,0h-2.49v3h-1V85.44H137a4.15,4.15,0,0,1,2.78.86,3.17,3.17,0,0,1-1.12,5.3L141,94.81Zm-.78-4.43a2.09,2.09,0,0,0,.73-1.72,2.15,2.15,0,0,0-.73-1.75,3.22,3.22,0,0,0-2.1-.61h-2.46V91H137A3.18,3.18,0,0,0,139.1,90.38Z"/><path class="cls-4" d="M153.8,86.3h-3.25v-.86H158v.86h-3.26v8.51h-1Z"/><path class="cls-4" d="M168.61,85.44h1v9.37h-1Z"/><path class="cls-4" d="M182.6,86.3V90h4.8v.86h-4.8v4h-1V85.44H188v.86Z"/><path class="cls-4" d="M199,85.44h1v9.37h-1Z"/><path class="cls-4" d="M218.58,94v.86H212V85.44h6.36v.86H213v3.33h4.8v.84H213V94Z"/><path class="cls-4" d="M229.89,85.44h3.77a5.46,5.46,0,0,1,2.6.6A4.34,4.34,0,0,1,238,87.7a5.05,5.05,0,0,1,0,4.86,4.34,4.34,0,0,1-1.75,1.65,5.46,5.46,0,0,1-2.6.6h-3.77ZM233.61,94a4.39,4.39,0,0,0,2.13-.49,3.42,3.42,0,0,0,1.42-1.35,4.12,4.12,0,0,0,0-4,3.42,3.42,0,0,0-1.42-1.35,4.39,4.39,0,0,0-2.13-.49h-2.74V94Z"/><path class="cls-4" d="M268.87,94v.86h-6.55V85.44h6.35v.86H263.3v3.33h4.79v.84H263.3V94Z"/><path class="cls-4" d="M285.09,94.28a4.47,4.47,0,0,1-1.74-1.71,5.09,5.09,0,0,1,0-4.88A4.38,4.38,0,0,1,285.1,86a5.31,5.31,0,0,1,4.39-.27,3.88,3.88,0,0,1,1.49,1l-.62.63a3.69,3.69,0,0,0-2.75-1.11,4,4,0,0,0-2,.51,3.56,3.56,0,0,0-1.41,1.39,4.12,4.12,0,0,0,0,4,3.69,3.69,0,0,0,1.41,1.39,4,4,0,0,0,2,.51,3.64,3.64,0,0,0,2.75-1.13l.62.63a4,4,0,0,1-1.49,1,5.23,5.23,0,0,1-1.92.35A5,5,0,0,1,285.09,94.28Z"/><path class="cls-4" d="M303.69,94.27a4.49,4.49,0,0,1-1.75-1.71,5,5,0,0,1,0-4.87,4.4,4.4,0,0,1,1.75-1.7,5.27,5.27,0,0,1,5,0,4.61,4.61,0,0,1,1.74,1.71,5,5,0,0,1,0,4.88,4.61,4.61,0,0,1-1.74,1.71,5.33,5.33,0,0,1-5,0Zm4.48-.76a3.74,3.74,0,0,0,1.39-1.4,4.18,4.18,0,0,0,0-4,3.71,3.71,0,0,0-1.39-1.39,3.89,3.89,0,0,0-2-.5,4,4,0,0,0-2,.5,3.53,3.53,0,0,0-1.4,1.39,4.12,4.12,0,0,0,0,4,3.49,3.49,0,0,0,1.4,1.4,4.25,4.25,0,0,0,4,0Z"/><path class="cls-4" d="M331.88,85.44v9.37h-.94V87.32l-3.64,6.3h-.47l-3.64-6.26v7.45h-.94V85.44h.81l4,7,4-7Z"/><path class="cls-4" d="M353.54,85.44v9.37h-.94V87.32l-3.6,6.3h-.47l-3.64-6.26v7.45H344V85.44h.81l4,7,4-7Z"/><path class="cls-4" d="M372.12,94v.86h-6.55V85.44h6.35v.86h-5.38v3.33h4.8v.84h-4.8V94Z"/><path class="cls-4" d="M389.77,94.81l-2.12-3a4.7,4.7,0,0,1-.75,0h-2.49v3h-1V85.44h3.47a4.19,4.19,0,0,1,2.79.86,3.17,3.17,0,0,1-1.12,5.3l2.27,3.21ZM389,90.38a2.09,2.09,0,0,0,.73-1.72,2.15,2.15,0,0,0-.73-1.75,3.15,3.15,0,0,0-2.1-.61h-2.47V91h2.47A3.16,3.16,0,0,0,389,90.38Z"/><path class="cls-4" d="M403.56,94.28a4.51,4.51,0,0,1-1.73-1.71,5,5,0,0,1,0-4.88A4.49,4.49,0,0,1,403.57,86a5,5,0,0,1,2.49-.62,5.21,5.21,0,0,1,1.91.35,4,4,0,0,1,1.48,1l-.62.63a3.69,3.69,0,0,0-2.75-1.11,4,4,0,0,0-2,.51,3.56,3.56,0,0,0-1.41,1.39,4.12,4.12,0,0,0,0,4,3.69,3.69,0,0,0,1.41,1.39,4,4,0,0,0,2,.51,3.64,3.64,0,0,0,2.75-1.13l.62.63a4,4,0,0,1-1.49,1,5.23,5.23,0,0,1-1.92.35A5,5,0,0,1,403.56,94.28Z"/><path class="cls-4" d="M427.11,94v.86h-6.56V85.44h6.36v.86h-5.38v3.33h4.8v.84h-4.8V94Z"/><path class="cls-4" d="M459.46,92.31H454.3l-1.11,2.5h-1l4.23-9.37h1l4.24,9.37h-1Zm-.35-.8-2.23-5-2.22,5Z"/><path class="cls-4" d="M479.11,90.13h.94V93.7a4.54,4.54,0,0,1-1.54.88,5.4,5.4,0,0,1-1.87.31,5.19,5.19,0,0,1-2.5-.61,4.56,4.56,0,0,1-1.75-1.71,5,5,0,0,1,0-4.88A4.51,4.51,0,0,1,474.14,86a5.14,5.14,0,0,1,2.52-.62,5.38,5.38,0,0,1,1.95.35,3.78,3.78,0,0,1,1.49,1l-.61.63a3.77,3.77,0,0,0-2.79-1.09,4.09,4.09,0,0,0-2,.5,3.65,3.65,0,0,0-1.42,1.39,4,4,0,0,0,0,4,3.79,3.79,0,0,0,1.42,1.39,4.36,4.36,0,0,0,4.45-.21Z"/><path class="cls-4" d="M498.38,94v.86h-6.56V85.44h6.36v.86H492.8v3.33h4.8v.84h-4.8V94Z"/><path class="cls-4" d="M517.44,85.44v9.37h-.81l-6-7.6v7.6h-1V85.44h.81l6,7.6v-7.6Z"/><path class="cls-4" d="M531,94.28a4.51,4.51,0,0,1-1.73-1.71,5,5,0,0,1,0-4.88A4.46,4.46,0,0,1,531,86a5,5,0,0,1,2.49-.62,5.21,5.21,0,0,1,1.91.35,4,4,0,0,1,1.48,1l-.62.63a3.67,3.67,0,0,0-2.74-1.11,4,4,0,0,0-2,.51,3.65,3.65,0,0,0-1.42,1.39,4.18,4.18,0,0,0,0,4,3.79,3.79,0,0,0,1.42,1.39,4,4,0,0,0,2,.51,3.63,3.63,0,0,0,2.74-1.13l.62.63a4,4,0,0,1-1.49,1,5.21,5.21,0,0,1-1.91.35A5,5,0,0,1,531,94.28Z"/><path class="cls-4" d="M551,91.57v3.24h-1V91.57l-3.7-6.13h1l3.18,5.26,3.18-5.26h1Z"/></g></g></g></g></g></g></svg>