<?xml version="1.0" encoding="UTF-8"?>
<svg id="Livello_2" data-name="Livello 2" xmlns="http://www.w3.org/2000/svg" xmlns:xlink="http://www.w3.org/1999/xlink" viewBox="0 0 42.99 14.17">
  <defs>
    <style>
      .cls-1 {
        fill: none;
      }

      .cls-2 {
        clip-path: url(#clippath);
      }

      .cls-3 {
        fill: #e30613;
      }

      .cls-4 {
        fill: #27348b;
      }
    </style>
    <clipPath id="clippath">
      <rect class="cls-1" width="42.99" height="14.17"/>
    </clipPath>
  </defs>
  <g id="Livello_1-2" data-name="Livello 1">
    <g class="cls-2">
      <path class="cls-4" d="m19.99,5.83c-.86-.76-1.87-1.15-2.98-1.15h-4.16v8.06h4.16c1.16,0,2.18-.37,3.02-1.1.88-.77,1.33-1.75,1.33-2.93,0-1.11-.46-2.08-1.37-2.88m-.97,4.69c-.6.53-1.28.8-2.01.8h-2.72v-5.2h2.71c.57,0,1.2.28,1.86.82.7.58,1.05,1.17,1.05,1.78,0,.68-.29,1.27-.89,1.8"/>
      <rect class="cls-4" x="22" y="4.68" width="1.44" height="8.06"/>
      <path class="cls-4" d="m40.47,5.85c-.83-.76-1.84-1.15-3.01-1.15s-2.17.39-3,1.16c-.83.77-1.25,1.74-1.25,2.89,0,.98.33,1.86.99,2.6h-5.98c-.77,0-1.41-.27-1.94-.82-.53-.54-.79-1.21-.79-1.97s.26-1.32.79-1.77c.51-.43,1.16-.64,1.95-.64h4.35v-1.43h-4.35c-1.18,0-2.18.36-2.97,1.08-.8.72-1.21,1.67-1.21,2.83,0,1.07.39,2.02,1.15,2.84.82.87,1.83,1.31,3.03,1.31h9.24c1.17,0,2.17-.37,2.98-1.1.84-.77,1.27-1.75,1.27-2.93s-.42-2.14-1.26-2.9m-3,5.5c-.78,0-1.45-.25-1.99-.75-.55-.5-.82-1.11-.82-1.86s.27-1.36.82-1.85c.55-.49,1.22-.74,1.99-.74s1.45.25,1.99.74c.55.49.82,1.1.82,1.85s-.29,1.35-.89,1.87c-.56.49-1.21.73-1.92.73"/>
      <path class="cls-3" d="m14.82,3.42h-.45v-.35h.86v1.08h-.4v-.22c-.12.09-.24.14-.36.18-.12.03-.26.05-.41.05-.33,0-.61-.12-.84-.37-.21-.22-.31-.47-.31-.74,0-.31.11-.57.32-.78.22-.21.5-.32.85-.32.28,0,.49.03.63.09.17.08.35.26.51.52.02.03.03.05.03.07,0,.03-.03.05-.08.05s-.11-.01-.18-.04c-.07-.02-.13-.06-.19-.1-.15-.11-.27-.18-.37-.22s-.22-.06-.36-.06c-.22,0-.42.09-.6.28-.16.17-.24.33-.24.49,0,.17.07.33.22.5.17.19.38.29.62.29.16,0,.31-.02.45-.06.22-.07.33-.18.33-.34"/>
      <path class="cls-3" d="m18.5,3.31v.83h-.32V1.93h1.13c.31,0,.56.05.75.14.24.12.37.31.37.57,0,.17-.07.32-.2.45-.13.14-.29.2-.47.2l.76.84h-.38s-.71-.83-.71-.83h-.91Zm1.62-.68c0-.14-.09-.24-.26-.3-.14-.05-.32-.07-.55-.07h-.82v.73h.82c.31,0,.53-.03.65-.1.11-.06.16-.15.16-.26"/>
      <path class="cls-3" d="m25.47,1.93h.32v1.56c0,.2-.13.36-.4.48-.23.11-.5.16-.79.16s-.53-.05-.75-.16c-.26-.12-.38-.29-.38-.48v-1.56h.32v1.49c0,.1.1.2.3.28.18.07.35.11.52.11.18,0,.36-.04.55-.11.21-.08.32-.18.32-.28v-1.49Z"/>
      <path class="cls-3" d="m28.75,1.93h1.13c.31,0,.56.05.75.14.24.12.37.31.37.57,0,.21-.12.38-.35.5-.21.11-.46.17-.76.17h-.81v.83h-.32V1.93Zm1.95.69c0-.14-.09-.24-.26-.3-.14-.05-.32-.07-.55-.07h-.81v.73h.81c.31,0,.53-.03.65-.1.11-.06.16-.15.16-.26"/>
      <path class="cls-3" d="m34.04,1.93h1.13c.31,0,.56.05.75.14.24.12.37.31.37.57,0,.21-.12.38-.35.5-.21.11-.46.17-.76.17h-.82v.83h-.32V1.93Zm1.95.69c0-.14-.09-.24-.26-.3-.14-.05-.32-.07-.55-.07h-.82v.73h.82c.31,0,.53-.03.65-.1.11-.06.16-.15.16-.26"/>
      <path class="cls-3" d="m39.33,3.04c0-.32.11-.58.34-.79.23-.21.5-.32.82-.32s.6.1.82.31c.23.21.34.47.34.79s-.12.59-.35.8c-.22.2-.49.3-.82.3-.34,0-.62-.11-.85-.34-.21-.21-.32-.47-.32-.76m1.16.78c.21,0,.4-.07.57-.22.18-.16.27-.34.27-.56s-.08-.41-.25-.56c-.16-.15-.36-.22-.6-.22s-.43.07-.6.22-.25.33-.25.56.08.41.25.56c.16.15.36.22.6.22"/>
      <path class="cls-3" d="m3.29,8.37c.16.73.61,1.3,1.35,1.71.66.36,1.42.54,2.3.54h5.64v2.1h-5.64c-1.69,0-3.05-.52-4.1-1.56-1.05-1.04-1.57-2.32-1.57-3.84s.56-2.75,1.69-3.81c1.12-1.06,2.45-1.59,3.99-1.59,1.71,0,3.11.63,4.22,1.9.95,1.09,1.42,2.27,1.42,3.54,0,.35-.06.69-.18,1.01H3.29Zm.05-2.1h6.8c-.2-.49-.4-.85-.6-1.08-.63-.73-1.5-1.1-2.6-1.1s-2.04.36-2.79,1.08c-.25.23-.52.6-.81,1.1"/>
    </g>
  </g>
</svg>